<?xml version="1.0" standalone="no"?>
<!DOCTYPE svg PUBLIC "-//W3C//DTD SVG 20010904//EN"
 "http://www.w3.org/TR/2001/REC-SVG-20010904/DTD/svg10.dtd">
<svg version="1.0" xmlns="http://www.w3.org/2000/svg"
 width="512.000000pt" height="512.000000pt" viewBox="0 0 512.000000 512.000000"
 preserveAspectRatio="xMidYMid meet">
<metadata>
Created by potrace 1.14, written by Peter Selinger 2001-2017
</metadata>
<g transform="translate(0.000000,512.000000) scale(0.100000,-0.100000)"
fill="#000000" stroke="none">
<path d="M1178 4359 c-108 -17 -226 -69 -323 -142 -155 -117 -243 -271 -279
-492 -3 -16 -6 -151 -6 -301 -2 -405 -4 -410 -320 -622 -152 -102 -178 -123
-198 -162 -28 -56 -28 -104 1 -160 19 -39 45 -60 197 -163 188 -126 229 -160
265 -217 49 -77 54 -122 55 -419 1 -298 8 -359 53 -471 41 -99 88 -170 163
-245 139 -138 325 -215 506 -211 45 1 65 7 99 31 49 34 77 77 81 121 10 117
-61 197 -183 208 -110 9 -180 40 -251 110 -95 95 -105 143 -106 492 -1 153 -4
289 -6 302 -38 180 -124 335 -238 430 -18 15 -38 32 -45 38 -7 6 -32 24 -57
40 -25 16 -46 31 -46 34 0 3 29 24 64 48 84 57 159 132 211 212 44 69 91 177
100 232 3 18 8 45 11 59 2 14 5 149 6 300 1 299 7 348 55 422 35 53 57 75 113
113 55 38 95 51 179 59 36 4 78 13 95 22 111 56 134 207 44 290 -52 49 -120
61 -240 42z"/>
<path d="M3754 4351 c-83 -38 -125 -125 -101 -211 22 -81 82 -125 183 -135
112 -11 177 -40 247 -110 94 -96 103 -141 105 -491 1 -251 3 -289 22 -364 48
-189 160 -342 327 -448 24 -15 43 -29 43 -32 0 -3 -30 -25 -65 -48 -146 -99
-252 -243 -299 -404 -24 -83 -27 -134 -29 -438 l-2 -275 -31 -65 c-62 -131
-169 -203 -319 -216 -65 -6 -83 -12 -122 -41 -83 -63 -89 -198 -11 -270 42
-39 89 -53 169 -48 345 20 621 280 673 635 3 19 6 158 6 307 1 300 6 327 64
413 41 62 35 56 212 176 215 145 222 150 242 192 27 54 27 109 0 162 -20 39
-45 60 -183 152 -236 157 -282 203 -318 313 -13 41 -17 103 -18 344 -1 257 -4
304 -21 365 -67 247 -231 428 -463 512 -116 42 -248 53 -311 25z"/>
<path d="M1214 2720 c-109 -54 -133 -200 -48 -285 51 -51 75 -55 312 -55 210
0 221 1 263 23 127 67 123 254 -6 317 -37 18 -62 20 -261 20 -199 0 -223 -2
-260 -20z"/>
<path d="M2298 2720 c-59 -32 -91 -82 -96 -148 -4 -68 16 -111 72 -157 l38
-30 228 -3 c209 -3 233 -2 273 16 127 56 143 223 30 309 l-36 28 -236 2 c-219
2 -239 1 -273 -17z"/>
<path d="M3395 2726 c-116 -50 -147 -197 -61 -289 48 -52 76 -57 313 -57 196
0 221 2 258 20 136 66 131 267 -8 325 -49 20 -456 21 -502 1z"/>
</g>
</svg>
