<?xml version="1.0" standalone="no"?>
<!DOCTYPE svg PUBLIC "-//W3C//DTD SVG 20010904//EN"
 "http://www.w3.org/TR/2001/REC-SVG-20010904/DTD/svg10.dtd">
<svg version="1.0" xmlns="http://www.w3.org/2000/svg"
 width="512.000000pt" height="512.000000pt" viewBox="0 0 512.000000 512.000000"
 preserveAspectRatio="xMidYMid meet">
<metadata>
Created by potrace 1.14, written by Peter Selinger 2001-2017
</metadata>
<g transform="translate(0.000000,512.000000) scale(0.100000,-0.100000)"
fill="#000000" stroke="none">
<path d="M325 5053 c10 -99 13 -129 20 -218 3 -44 8 -96 10 -115 4 -38 12
-121 19 -215 9 -104 18 -199 22 -235 2 -19 6 -71 9 -115 3 -44 8 -93 10 -110
2 -16 7 -66 10 -110 4 -44 9 -96 10 -115 2 -19 7 -75 11 -125 3 -49 7 -97 9
-106 2 -8 6 -60 10 -115 4 -54 9 -107 11 -118 2 -10 6 -53 9 -95 3 -42 8 -96
10 -121 3 -25 7 -76 11 -115 3 -38 7 -86 9 -105 2 -19 6 -69 10 -110 3 -41 8
-95 10 -120 2 -25 7 -76 10 -115 3 -38 8 -88 10 -110 2 -22 7 -71 10 -110 3
-38 8 -90 10 -115 2 -25 7 -76 10 -115 4 -38 8 -90 10 -115 2 -25 7 -74 10
-110 8 -75 11 -114 20 -225 3 -44 8 -96 10 -115 2 -19 7 -71 10 -115 4 -44 8
-96 10 -115 2 -19 7 -66 10 -105 6 -75 12 -140 20 -220 2 -27 7 -84 10 -125 3
-41 8 -86 10 -100 2 -14 6 -63 10 -110 10 -129 12 -151 17 -155 2 -3 69 -23
149 -45 79 -22 167 -47 194 -55 103 -30 1313 -368 1401 -391 73 -19 97 -22
125 -13 19 5 41 12 49 14 8 2 47 13 85 23 39 11 194 54 345 97 151 42 307 86
345 97 39 10 77 21 85 23 8 2 31 9 50 14 149 40 404 112 410 116 3 2 17 6 31
9 13 3 56 14 94 25 39 10 97 27 130 36 175 47 163 41 169 93 3 26 8 76 11 112
3 36 8 81 10 100 3 19 7 71 10 115 3 44 7 96 9 115 3 19 8 71 11 115 3 44 8
100 10 125 6 60 13 130 20 220 3 41 8 89 10 105 2 17 6 68 10 115 4 47 8 101
10 120 2 19 6 71 10 115 3 44 8 91 10 105 2 14 6 57 10 95 7 90 18 223 30 355
4 41 9 96 11 123 10 117 25 283 29 327 2 19 6 71 9 115 4 44 8 96 11 115 2 19
7 71 11 115 3 44 8 94 9 110 2 17 6 66 10 110 4 44 8 96 10 115 2 19 6 72 10
117 3 44 7 89 9 100 2 10 7 63 11 118 4 55 8 107 10 115 1 8 6 56 10 105 3 50
8 104 10 120 3 17 7 66 10 110 3 44 7 98 10 120 2 22 7 72 10 110 4 39 8 88
10 110 2 22 7 72 10 110 3 39 7 93 10 120 3 28 7 76 10 108 l4 57 -2240 0
-2240 0 6 -67z"/>
</g>
</svg>
