<svg xmlns="http://www.w3.org/2000/svg" version="1.1" xmlns:xlink="http://www.w3.org/1999/xlink" width="512" height="512" x="0" y="0" viewBox="0 0 24 24" style="enable-background:new 0 0 512 512" xml:space="preserve" class=""><g transform="matrix(1.1699999999999997,0,0,1.1699999999999997,-2.039999999999999,-2.039999999999999)"><path fill="#ff7100" fill-rule="evenodd" d="M5 2a3 3 0 0 0-3 3v16a1 1 0 1 0 2 0V5a1 1 0 0 1 1-1h16a1 1 0 1 0 0-2zm16 6.5a1 1 0 1 0 0-2 1 1 0 0 0 0 2zM12 22a1 1 0 1 0 0-2 1 1 0 0 0 0 2zm10-10a1 1 0 1 1-2 0 1 1 0 0 1 2 0zm-1 10a1 1 0 1 0 0-2 1 1 0 0 0 0 2zm1-5.5a1 1 0 1 1-2 0 1 1 0 0 1 2 0zM16.5 22a1 1 0 1 0 0-2 1 1 0 0 0 0 2zm-8-1a1 1 0 1 1-2 0 1 1 0 0 1 2 0z" clip-rule="evenodd" opacity="1" data-original="#160b34" class=""></path></g></svg>