<svg xmlns="http://www.w3.org/2000/svg" version="1.1" xmlns:xlink="http://www.w3.org/1999/xlink" width="512" height="512" x="0" y="0" viewBox="0 0 512 512" style="enable-background:new 0 0 512 512" xml:space="preserve" class=""><g><path d="m460.143 156.002 42.929-42.929c4.89-4.892 3.447-13.154-2.79-16.109l-190-90a10.002 10.002 0 0 0-11.353 1.966L256 51.86 213.072 8.931a10.002 10.002 0 0 0-11.353-1.966l-190 90c-6.249 2.96-7.673 11.226-2.79 16.109l42.929 42.929-42.929 42.928c-4.891 4.891-3.448 13.154 2.79 16.109L56 236.015v159.987c0 3.713 2.057 7.12 5.342 8.85.867.456 189.513 99.749 190.132 100.059 2.762 1.409 6.114 1.512 9.183-.059l190-100a10 10 0 0 0 5.343-8.85V236.015l44.281-20.975c6.251-2.961 7.67-11.227 2.79-16.109zM256 234.937 89.36 156.002 256 77.068l166.639 78.934zm52.088-206.88 170.808 80.909-34.983 34.983L273.104 63.04zm-104.175 0 34.982 34.983-170.807 80.908-34.983-34.983zm-135.825 140 170.807 80.909-34.982 34.983L33.105 203.04zm7.913 77.432 125.719 59.55a10.003 10.003 0 0 0 11.353-1.966L246 270.145v209.294L76 389.965V245.489zM436 389.965l-170 89.474V270.145l32.929 32.929a10.004 10.004 0 0 0 11.353 1.966L436 245.489zM308.088 283.948l-34.983-34.983 170.808-80.909 34.983 34.983z" fill="#ff7100" opacity="1" data-original="#000000" class=""></path></g></svg>