<svg xmlns="http://www.w3.org/2000/svg" version="1.1" xmlns:xlink="http://www.w3.org/1999/xlink"
    xmlns:svgjs="http://svgjs.com/svgjs" width="512" height="512" x="0" y="0" viewBox="0 0 32 32"
    style="enable-background:new 0 0 512 512" xml:space="preserve"><g><g data-name="Icon copy"><path d="M24 6H12a3.003 3.003 0 0 0-3 3v18a3.003 3.003 0 0 0 3 3h12a3.003 3.003 0 0 0 3-3V9a3.003 3.003 0 0 0-3-3zm1 21a1 1 0 0 1-1 1H12a1 1 0 0 1-1-1V9a1 1 0 0 1 1-1h12a1 1 0 0 1 1 1z" fill="#ffffff" data-original="#000000"></path><path d="M21 4a1 1 0 0 0 0-2H10a5.006 5.006 0 0 0-5 5v17a1 1 0 0 0 2 0V7a3.003 3.003 0 0 1 3-3z" fill="#ffffff" data-original="#000000"></path></g></g></svg>