<svg xmlns="http://www.w3.org/2000/svg" version="1.1" xmlns:xlink="http://www.w3.org/1999/xlink" width="512" height="512" x="0" y="0" viewBox="0 0 32 32" style="enable-background:new 0 0 512 512" xml:space="preserve" class=""><g transform="matrix(1.1299999999999992,0,0,1.1299999999999992,-2.0800000309943982,-2.0799999999999876)"><path d="M9 24a2 2 0 0 1-2-2v-2.39a4 4 0 0 0-1.78-3.33L4.8 16l.42-.28A4 4 0 0 0 7 12.39V10a2 2 0 0 1 2-2 1 1 0 0 0 0-2 4 4 0 0 0-4 4v2.39a2 2 0 0 1-.89 1.67l-1.66 1.11a1 1 0 0 0 0 1.66l1.66 1.11A2 2 0 0 1 5 19.61V22a4 4 0 0 0 4 4 1 1 0 0 0 0-2zM29.55 15.17l-1.66-1.11a2 2 0 0 1-.89-1.67V10a4 4 0 0 0-4-4 1 1 0 0 0 0 2 2 2 0 0 1 2 2v2.39a4 4 0 0 0 1.78 3.33l.42.28-.42.28A4 4 0 0 0 25 19.61V22a2 2 0 0 1-2 2 1 1 0 0 0 0 2 4 4 0 0 0 4-4v-2.39a2 2 0 0 1 .89-1.67l1.66-1.11a1 1 0 0 0 0-1.66z" fill="#ff7100" opacity="1" data-original="#000000" class=""></path><path d="M11 15H9a1 1 0 0 0 0 2h2a1 1 0 0 0 0-2zM17 15h-2a1 1 0 0 0 0 2h2a1 1 0 0 0 0-2zM24 16a1 1 0 0 0-1-1h-2a1 1 0 0 0 0 2h2a1 1 0 0 0 1-1z" fill="#ff7100" opacity="1" data-original="#000000" class=""></path></g></svg>