<svg xmlns="http://www.w3.org/2000/svg" version="1.1" xmlns:xlink="http://www.w3.org/1999/xlink" width="512" height="512" x="0" y="0" viewBox="0 0 682 682.667" style="enable-background:new 0 0 512 512" xml:space="preserve" class=""><g transform="matrix(1.0499999999999992,0,0,1.0499999999999992,4.0498578071597535,4.000000000000284)"><path d="M407.738 640h-177.5c-24.125 0-43.75-19.625-43.75-43.75v-62.5c0-24.125 19.625-43.75 43.75-43.75h13.75V150h-91.156l-13.805 27.613c-5.226 10.45-14.21 18.242-25.297 21.938-11.09 3.695-22.949 2.851-33.398-2.38L24.43 169.224c-21.578-10.79-30.352-37.118-19.567-58.696l36.262-72.523C52.848 14.563 76.406 0 102.617 0h432.746c26.211 0 49.77 14.563 61.492 38.004l36.262 72.523c5.223 10.45 6.067 22.317 2.371 33.403-3.695 11.086-11.488 20.07-21.937 25.293l-55.903 27.949c-21.582 10.793-47.91 2.012-58.699-19.559L485.15 150h-91.16v340h13.75c24.12 0 43.75 19.625 43.75 43.75v62.5c0 24.125-19.63 43.75-43.75 43.75zm0 0" fill="#ff7100" opacity="1" data-original="#000000" class=""></path></g></svg>